<svg width="16" height="17" viewBox="0 0 16 17" fill="none" xmlns="http://www.w3.org/2000/svg">
<path d="M0.106667 7.49879C0.170125 7.33512 0.26528 7.18559 0.386667 7.05879L7.05333 0.392122C7.17765 0.267804 7.32524 0.16919 7.48767 0.10191C7.6501 0.0346292 7.82419 0 8 0C8.35507 0 8.69559 0.141051 8.94667 0.392122C9.07098 0.51644 9.1696 0.664027 9.23688 0.826457C9.30416 0.988886 9.33879 1.16298 9.33879 1.33879C9.33879 1.69386 9.19774 2.03438 8.94667 2.28546L4.54667 6.67212H14.6667C15.0203 6.67212 15.3594 6.8126 15.6095 7.06265C15.8595 7.3127 16 7.65183 16 8.00546C16 8.35908 15.8595 8.69822 15.6095 8.94826C15.3594 9.19831 15.0203 9.33879 14.6667 9.33879H4.54667L8.94667 13.7255C9.07164 13.8494 9.17083 13.9969 9.23852 14.1594C9.30621 14.3218 9.34106 14.4961 9.34106 14.6721C9.34106 14.8481 9.30621 15.0224 9.23852 15.1849C9.17083 15.3474 9.07164 15.4948 8.94667 15.6188C8.82272 15.7438 8.67525 15.843 8.51277 15.9106C8.35029 15.9783 8.17602 16.0132 8 16.0132C7.82398 16.0132 7.64971 15.9783 7.48723 15.9106C7.32475 15.843 7.17728 15.7438 7.05333 15.6188L0.386667 8.95212C0.26528 8.82532 0.170125 8.67579 0.106667 8.51212C-0.0266914 8.18751 -0.0266914 7.8234 0.106667 7.49879Z" fill="white"/>
</svg>
