<svg width="16" height="17" viewBox="0 0 16 17" fill="#fff" xmlns="http://www.w3.org/2000/svg">
<path d="M15.8933 7.49879C15.8299 7.33512 15.7347 7.18559 15.6133 7.05879L8.94667 0.392122C8.82235 0.267804 8.67476 0.16919 8.51233 0.10191C8.3499 0.0346292 8.17581 0 8 0C7.64493 0 7.30441 0.141051 7.05333 0.392122C6.92902 0.51644 6.8304 0.664027 6.76312 0.826457C6.69584 0.988886 6.66121 1.16298 6.66121 1.33879C6.66121 1.69386 6.80226 2.03438 7.05333 2.28546L11.4533 6.67212H1.33333C0.979711 6.67212 0.640573 6.8126 0.390525 7.06265C0.140476 7.3127 0 7.65183 0 8.00546C0 8.35908 0.140476 8.69822 0.390525 8.94826C0.640573 9.19831 0.979711 9.33879 1.33333 9.33879H11.4533L7.05333 13.7255C6.92836 13.8494 6.82917 13.9969 6.76148 14.1594C6.69379 14.3218 6.65894 14.4961 6.65894 14.6721C6.65894 14.8481 6.69379 15.0224 6.76148 15.1849C6.82917 15.3474 6.92836 15.4948 7.05333 15.6188C7.17728 15.7438 7.32475 15.843 7.48723 15.9106C7.64971 15.9783 7.82398 16.0132 8 16.0132C8.17602 16.0132 8.35029 15.9783 8.51277 15.9106C8.67525 15.843 8.82272 15.7438 8.94667 15.6188L15.6133 8.95212C15.7347 8.82532 15.8299 8.67579 15.8933 8.51212C16.0267 8.18751 16.0267 7.8234 15.8933 7.49879Z" fill="white"/>
</svg>
