<svg width="30" height="30" viewBox="0 0 30 30" fill="none" xmlns="http://www.w3.org/2000/svg">
<path d="M9.66568 19.395H9.66705C9.6682 19.395 9.66934 19.3947 9.67049 19.3947H25.6055C25.9978 19.3947 26.3427 19.1345 26.4505 18.7573L29.9661 6.45262C30.0419 6.18735 29.9888 5.90216 29.8228 5.68198C29.6567 5.46179 29.3969 5.33224 29.1211 5.33224H7.6387L7.01042 2.50487C6.92093 2.10272 6.56433 1.81662 6.15234 1.81662H0.878906C0.393448 1.81662 0 2.21007 0 2.69553C0 3.18098 0.393448 3.57443 0.878906 3.57443H5.44739C5.55862 4.07545 8.45398 17.1048 8.6206 17.8544C7.68654 18.2604 7.03125 19.1917 7.03125 20.2736C7.03125 21.7275 8.21411 22.9104 9.66797 22.9104H25.6055C26.0909 22.9104 26.4844 22.5169 26.4844 22.0315C26.4844 21.546 26.0909 21.1526 25.6055 21.1526H9.66797C9.18343 21.1526 8.78906 20.7582 8.78906 20.2736C8.78906 19.7898 9.18205 19.3961 9.66568 19.395V19.395ZM27.9559 7.09006L24.9424 17.6369H10.3729L8.02917 7.09006H27.9559Z" fill="#2D2D2D"/>
<path d="M8.78906 25.5468C8.78906 27.0006 9.97192 28.1835 11.4258 28.1835C12.8796 28.1835 14.0625 27.0006 14.0625 25.5468C14.0625 24.0929 12.8796 22.9101 11.4258 22.9101C9.97192 22.9101 8.78906 24.0929 8.78906 25.5468ZM11.4258 24.6679C11.9103 24.6679 12.3047 25.0622 12.3047 25.5468C12.3047 26.0313 11.9103 26.4257 11.4258 26.4257C10.9412 26.4257 10.5469 26.0313 10.5469 25.5468C10.5469 25.0622 10.9412 24.6679 11.4258 24.6679Z" fill="#2D2D2D"/>
<path d="M21.2109 25.5468C21.2109 27.0006 22.3938 28.1835 23.8476 28.1835C25.3015 28.1835 26.4843 27.0006 26.4843 25.5468C26.4843 24.0929 25.3015 22.9101 23.8476 22.9101C22.3938 22.9101 21.2109 24.0929 21.2109 25.5468ZM23.8476 24.6679C24.3322 24.6679 24.7265 25.0622 24.7265 25.5468C24.7265 26.0313 24.3322 26.4257 23.8476 26.4257C23.3631 26.4257 22.9687 26.0313 22.9687 25.5468C22.9687 25.0622 23.3631 24.6679 23.8476 24.6679Z" fill="#2D2D2D"/>
</svg>
