<svg width="30" height="31" viewBox="0 0 30 31" fill="none" xmlns="http://www.w3.org/2000/svg">
<path d="M19.0563 7.84863H10.9442V22.3762H19.0563V7.84863Z" fill="#FF5F00"/>
<path d="M11.4592 15.1131C11.4579 13.714 11.7761 12.333 12.3896 11.0745C13.003 9.81604 13.8958 8.71315 15.0002 7.84935C13.6325 6.77803 11.99 6.1118 10.2604 5.92679C8.53071 5.74178 6.78373 6.04547 5.21909 6.80315C3.65445 7.56082 2.33527 8.74191 1.41235 10.2114C0.489432 11.6809 0 13.3795 0 15.1131C0 16.8467 0.489432 18.5454 1.41235 20.0149C2.33527 21.4844 3.65445 22.6655 5.21909 23.4232C6.78373 24.1808 8.53071 24.4845 10.2604 24.2995C11.99 24.1145 13.6325 23.4483 15.0002 22.3769C13.8958 21.5131 13.003 20.4103 12.3896 19.1518C11.7761 17.8933 11.4579 16.5123 11.4592 15.1131Z" fill="#EB001B"/>
<path d="M30 15.1131C30.0001 16.8467 29.5107 18.5453 28.5878 20.0149C27.665 21.4844 26.3458 22.6655 24.7812 23.4231C23.2166 24.1808 21.4696 24.4845 19.74 24.2995C18.0104 24.1145 16.3679 23.4483 15.0003 22.3769C16.1037 21.5123 16.9958 20.4092 17.6091 19.1509C18.2225 17.8927 18.5412 16.512 18.5412 15.1131C18.5412 13.7143 18.2225 12.3336 17.6091 11.0754C16.9958 9.81709 16.1037 8.71403 15.0003 7.84935C16.3679 6.77803 18.0104 6.11179 19.74 5.92679C21.4696 5.74178 23.2166 6.04548 24.7812 6.80316C26.3458 7.56084 27.665 8.74193 28.5878 10.2114C29.5107 11.6809 30.0001 13.3796 30 15.1131Z" fill="#F79E1B"/>
<path d="M29.1155 20.8381V20.5407H29.2359V20.4801H28.9294V20.5407H29.0498V20.8381H29.1155ZM29.7106 20.8381V20.4795H29.6166L29.5086 20.7262L29.4005 20.4795H29.3065V20.8381H29.3728V20.5676L29.4742 20.8008H29.5429L29.6443 20.567V20.8381H29.7106Z" fill="#F79E1B"/>
</svg>
