<svg width="35" height="30" viewBox="0 0 35 30" fill="none" xmlns="http://www.w3.org/2000/svg">
<path d="M9.66568 19.395H9.66705C9.6682 19.395 9.66934 19.3947 9.67049 19.3947H25.6055C25.9978 19.3947 26.3427 19.1345 26.4505 18.7573L29.9661 6.45261C30.0419 6.18733 29.9888 5.90214 29.8228 5.68196C29.6567 5.46178 29.3969 5.33223 29.1211 5.33223H7.6387L7.01042 2.50485C6.92093 2.10271 6.56433 1.8166 6.15234 1.8166H0.878906C0.393448 1.8166 0 2.21005 0 2.69551C0 3.18097 0.393448 3.57442 0.878906 3.57442H5.44739C5.55862 4.07544 8.45398 17.1048 8.6206 17.8544C7.68654 18.2604 7.03125 19.1917 7.03125 20.2736C7.03125 21.7275 8.21411 22.9104 9.66797 22.9104H25.6055C26.0909 22.9104 26.4844 22.5169 26.4844 22.0314C26.4844 21.546 26.0909 21.1525 25.6055 21.1525H9.66797C9.18342 21.1525 8.78906 20.7582 8.78906 20.2736C8.78906 19.7898 9.18205 19.3961 9.66568 19.395ZM27.9559 7.09004L24.9424 17.6369H10.3729L8.02917 7.09004H27.9559Z" fill="#2D2D2D"/>
<path d="M8.78906 25.5468C8.78906 27.0006 9.97192 28.1835 11.4258 28.1835C12.8796 28.1835 14.0625 27.0006 14.0625 25.5468C14.0625 24.0929 12.8796 22.9101 11.4258 22.9101C9.97192 22.9101 8.78906 24.0929 8.78906 25.5468ZM11.4258 24.6679C11.9103 24.6679 12.3047 25.0622 12.3047 25.5468C12.3047 26.0313 11.9103 26.4257 11.4258 26.4257C10.9412 26.4257 10.5469 26.0313 10.5469 25.5468C10.5469 25.0622 10.9412 24.6679 11.4258 24.6679Z" fill="#2D2D2D"/>
<path d="M21.2109 25.5468C21.2109 27.0006 22.3938 28.1835 23.8477 28.1835C25.3015 28.1835 26.4844 27.0006 26.4844 25.5468C26.4844 24.0929 25.3015 22.9101 23.8477 22.9101C22.3938 22.9101 21.2109 24.0929 21.2109 25.5468ZM23.8477 24.6679C24.3322 24.6679 24.7266 25.0622 24.7266 25.5468C24.7266 26.0313 24.3322 26.4257 23.8477 26.4257C23.3631 26.4257 22.9688 26.0313 22.9688 25.5468C22.9688 25.0622 23.3631 24.6679 23.8477 24.6679Z" fill="#2D2D2D"/>
<circle cx="30" cy="5" r="5" fill="#1D8DD9"/>
<path d="M30.2278 7C30.1911 7 30.1611 6.98833 30.1378 6.965C30.1178 6.94167 30.1078 6.91333 30.1078 6.88V4.29L29.3478 4.875C29.3178 4.895 29.2878 4.90333 29.2578 4.9C29.2278 4.89333 29.2011 4.875 29.1778 4.845L28.9678 4.575C28.9478 4.545 28.9394 4.51333 28.9428 4.48C28.9494 4.44667 28.9678 4.42 28.9978 4.4L30.1178 3.535C30.1378 3.51833 30.1578 3.50833 30.1778 3.505C30.1978 3.50167 30.2194 3.5 30.2428 3.5H30.6828C30.7161 3.5 30.7444 3.51167 30.7678 3.535C30.7911 3.55833 30.8028 3.58667 30.8028 3.62V6.88C30.8028 6.91333 30.7911 6.94167 30.7678 6.965C30.7444 6.98833 30.7161 7 30.6828 7H30.2278Z" fill="white"/>
</svg>
