<svg width="11" height="11" viewBox="0 0 11 11" fill="none" xmlns="http://www.w3.org/2000/svg">
<path d="M4.878 10.406C4.746 10.406 4.638 10.364 4.554 10.28C4.47 10.196 4.428 10.088 4.428 9.956V6.554H1.098C0.966 6.554 0.858 6.512 0.774 6.428C0.69 6.344 0.648 6.242 0.648 6.122V4.988C0.648 4.856 0.69 4.748 0.774 4.664C0.858 4.58 0.966 4.538 1.098 4.538H4.428V1.244C4.428 1.112 4.47 1.004 4.554 0.92C4.638 0.836 4.746 0.793999 4.878 0.793999H6.12C6.252 0.793999 6.36 0.836 6.444 0.92C6.528 1.004 6.57 1.112 6.57 1.244V4.538H9.9C10.02 4.538 10.122 4.58 10.206 4.664C10.29 4.748 10.332 4.856 10.332 4.988V6.122C10.332 6.242 10.29 6.344 10.206 6.428C10.122 6.512 10.02 6.554 9.9 6.554H6.57V9.956C6.57 10.088 6.528 10.196 6.444 10.28C6.36 10.364 6.252 10.406 6.12 10.406H4.878Z" fill="#1D8DD9"/>
</svg>
