<svg width="30" height="31" viewBox="0 0 30 31" fill="none" xmlns="http://www.w3.org/2000/svg">
<path d="M14.8541 10.424L12.8498 19.762H10.4255L12.43 10.424H14.8541ZM25.0528 16.4537L26.3287 12.947L27.063 16.4537H25.0528ZM27.7584 19.762H30L28.0417 10.424H25.974C25.508 10.424 25.1152 10.6932 24.9413 11.1084L21.3039 19.762H23.8498L24.3552 18.3674H27.4649L27.7584 19.762ZM21.4302 16.7135C21.4407 14.249 18.0116 14.1125 18.0345 13.0113C18.0419 12.6767 18.3622 12.3203 19.0624 12.2292C19.4095 12.1846 20.3673 12.1485 21.4531 12.6471L21.8778 10.6661C21.2947 10.4559 20.5442 10.2534 19.6103 10.2534C17.2139 10.2534 15.528 11.522 15.5146 13.34C15.4992 14.6844 16.7188 15.434 17.6358 15.8818C18.5812 16.3394 18.898 16.6328 18.8933 17.0417C18.8868 17.6683 18.1395 17.9457 17.4436 17.9562C16.2242 17.9751 15.5173 17.6277 14.954 17.366L14.5139 19.4132C15.0812 19.6719 16.1266 19.8971 17.209 19.9086C19.7568 19.9086 21.4226 18.655 21.4302 16.7135ZM11.3901 10.424L7.46233 19.762H4.90021L2.96719 12.3096C2.85001 11.8513 2.74779 11.6829 2.39141 11.4892C1.80847 11.1738 0.846172 10.8787 0 10.6951L0.0573254 10.424H4.18217C4.70758 10.424 5.1803 10.7724 5.30064 11.3756L6.32174 16.7796L8.84339 10.424H11.3901Z" fill="#1434CB"/>
</svg>
